<svg xmlns="http://www.w3.org/2000/svg" xmlns:xlink="http://www.w3.org/1999/xlink" width="793" zoomAndPan="magnify" viewBox="0 0 594.95996 842.24997" height="1122" preserveAspectRatio="xMidYMid meet" version="1.0"><defs><g/><clipPath id="id1"><path d="M 59.296875 366.34375 L 534.722656 366.34375 L 534.722656 374 L 59.296875 374 Z M 59.296875 366.34375 " clip-rule="nonzero"/></clipPath></defs><g clip-path="url(#id1)"><path fill="#353535" d="M 532.136719 370.554688 L 532.136719 369.527344 C 532.328125 368.339844 533.429688 367.40625 534.722656 367.40625 L 534.722656 366.34375 C 532.832031 366.34375 531.289062 367.714844 531.003906 369.527344 L 63.011719 369.527344 C 62.730469 367.714844 61.183594 366.34375 59.296875 366.34375 L 59.296875 367.40625 C 60.777344 367.40625 61.972656 368.589844 61.972656 370.054688 C 61.972656 371.523438 60.777344 372.707031 59.296875 372.707031 L 59.296875 373.765625 C 61.183594 373.765625 62.730469 372.394531 63.011719 370.585938 L 531.035156 370.585938 C 531.320312 372.363281 532.863281 373.765625 534.753906 373.765625 L 534.753906 372.707031 C 533.460938 372.707031 532.359375 371.769531 532.136719 370.554688 " fill-opacity="1" fill-rule="nonzero"/></g><g fill="#353535" fill-opacity="1"><g transform="translate(297.367936, 388.0558)"><g/></g></g></svg>