<svg xmlns="http://www.w3.org/2000/svg" xmlns:xlink="http://www.w3.org/1999/xlink" width="793" zoomAndPan="magnify" viewBox="0 0 594.95996 842.24997" height="1122" preserveAspectRatio="xMidYMid meet" version="1.0"><defs><g/></defs><g fill="#000000" fill-opacity="1"><g transform="translate(288.151652, 419.668492)"><g><path d="M 5.421875 0 L 4.515625 0 L 4.515625 -2.25 L 1.625 -2.25 L 1.625 0 L 0.71875 0 L 0.71875 -5.4375 L 1.625 -5.4375 L 1.625 -3.078125 L 4.515625 -3.078125 L 4.515625 -5.4375 L 5.421875 -5.4375 Z M 5.421875 0 "/></g></g></g><g fill="#000000" fill-opacity="1"><g transform="translate(294.288901, 419.668492)"><g><path d="M 1.09375 -4.65625 C 1.644531 -5.1875 2.328125 -5.453125 3.140625 -5.453125 C 3.953125 -5.453125 4.632812 -5.1875 5.1875 -4.65625 C 5.75 -4.132812 6.03125 -3.484375 6.03125 -2.703125 C 6.03125 -1.929688 5.75 -1.28125 5.1875 -0.75 C 4.632812 -0.226562 3.953125 0.03125 3.140625 0.03125 C 2.328125 0.03125 1.644531 -0.226562 1.09375 -0.75 C 0.539062 -1.28125 0.265625 -1.929688 0.265625 -2.703125 C 0.265625 -3.484375 0.539062 -4.132812 1.09375 -4.65625 Z M 3.15625 -4.640625 C 2.613281 -4.640625 2.148438 -4.453125 1.765625 -4.078125 C 1.390625 -3.710938 1.203125 -3.257812 1.203125 -2.71875 C 1.203125 -2.175781 1.394531 -1.71875 1.78125 -1.34375 C 2.164062 -0.96875 2.625 -0.78125 3.15625 -0.78125 C 3.6875 -0.78125 4.140625 -0.96875 4.515625 -1.34375 C 4.898438 -1.71875 5.09375 -2.175781 5.09375 -2.71875 C 5.09375 -3.257812 4.898438 -3.710938 4.515625 -4.078125 C 4.140625 -4.453125 3.6875 -4.640625 3.15625 -4.640625 Z M 3.15625 -4.640625 "/></g></g></g><g fill="#000000" fill-opacity="1"><g transform="translate(300.573569, 419.668492)"><g><path d="M 0.71875 -5.4375 L 2.9375 -5.4375 C 3.75 -5.4375 4.421875 -5.175781 4.953125 -4.65625 C 5.484375 -4.144531 5.75 -3.492188 5.75 -2.703125 C 5.75 -1.921875 5.484375 -1.273438 4.953125 -0.765625 C 4.421875 -0.253906 3.742188 0 2.921875 0 L 0.71875 0 Z M 1.625 -4.609375 L 1.625 -0.828125 L 2.96875 -0.828125 C 3.5 -0.828125 3.941406 -1.003906 4.296875 -1.359375 C 4.648438 -1.710938 4.828125 -2.160156 4.828125 -2.703125 C 4.828125 -3.253906 4.644531 -3.707031 4.28125 -4.0625 C 3.914062 -4.425781 3.460938 -4.609375 2.921875 -4.609375 Z M 1.625 -4.609375 "/></g></g></g><g fill="#000000" fill-opacity="1"><g transform="translate(264.923174, 430.29132)"><g><path d="M 0.71875 -5.4375 L 2.9375 -5.4375 C 3.75 -5.4375 4.421875 -5.175781 4.953125 -4.65625 C 5.484375 -4.144531 5.75 -3.492188 5.75 -2.703125 C 5.75 -1.921875 5.484375 -1.273438 4.953125 -0.765625 C 4.421875 -0.253906 3.742188 0 2.921875 0 L 0.71875 0 Z M 1.625 -4.609375 L 1.625 -0.828125 L 2.96875 -0.828125 C 3.5 -0.828125 3.941406 -1.003906 4.296875 -1.359375 C 4.648438 -1.710938 4.828125 -2.160156 4.828125 -2.703125 C 4.828125 -3.253906 4.644531 -3.707031 4.28125 -4.0625 C 3.914062 -4.425781 3.460938 -4.609375 2.921875 -4.609375 Z M 1.625 -4.609375 "/></g></g></g><g fill="#000000" fill-opacity="1"><g transform="translate(270.936284, 430.29132)"><g><path d="M 1.546875 -4.125 L 1.546875 -3.3125 C 1.835938 -3.875 2.316406 -4.15625 2.984375 -4.15625 L 2.984375 -3.3125 C 2.578125 -3.332031 2.242188 -3.234375 1.984375 -3.015625 C 1.734375 -2.804688 1.585938 -2.519531 1.546875 -2.15625 L 1.546875 0 L 0.65625 0 L 0.65625 -4.125 Z M 1.546875 -4.125 "/></g></g></g><g fill="#000000" fill-opacity="1"><g transform="translate(273.993268, 430.29132)"><g><path d="M 0.5 -0.8125 C 0.59375 -0.90625 0.707031 -0.953125 0.84375 -0.953125 C 0.988281 -0.953125 1.101562 -0.90625 1.1875 -0.8125 C 1.28125 -0.71875 1.328125 -0.597656 1.328125 -0.453125 C 1.328125 -0.296875 1.28125 -0.171875 1.1875 -0.078125 C 1.101562 0.015625 0.988281 0.0625 0.84375 0.0625 C 0.707031 0.0625 0.59375 0.015625 0.5 -0.078125 C 0.40625 -0.171875 0.359375 -0.296875 0.359375 -0.453125 C 0.359375 -0.597656 0.40625 -0.71875 0.5 -0.8125 Z M 0.5 -0.8125 "/></g></g></g><g fill="#000000" fill-opacity="1"><g transform="translate(275.684694, 430.29132)"><g/></g></g><g fill="#000000" fill-opacity="1"><g transform="translate(277.686476, 430.29132)"><g><path d="M 4.34375 0 L 2.5625 -2.40625 L 1.625 -1.375 L 1.625 0 L 0.71875 0 L 0.71875 -5.4375 L 1.625 -5.4375 L 1.625 -2.625 L 4.21875 -5.4375 L 5.296875 -5.4375 L 3.203125 -3.109375 L 5.4375 0 Z M 4.34375 0 "/></g></g></g><g fill="#000000" fill-opacity="1"><g transform="translate(283.257326, 430.29132)"><g><path d="M 0.71875 -5.703125 C 0.820312 -5.804688 0.945312 -5.859375 1.09375 -5.859375 C 1.25 -5.859375 1.375 -5.804688 1.46875 -5.703125 C 1.570312 -5.597656 1.625 -5.46875 1.625 -5.3125 C 1.625 -5.15625 1.570312 -5.023438 1.46875 -4.921875 C 1.375 -4.828125 1.25 -4.78125 1.09375 -4.78125 C 0.945312 -4.78125 0.820312 -4.828125 0.71875 -4.921875 C 0.625 -5.023438 0.578125 -5.15625 0.578125 -5.3125 C 0.578125 -5.46875 0.625 -5.597656 0.71875 -5.703125 Z M 1.546875 0 L 0.65625 0 L 0.65625 -4.125 L 1.546875 -4.125 Z M 1.546875 0 "/></g></g></g><g fill="#000000" fill-opacity="1"><g transform="translate(285.460835, 430.29132)"><g><path d="M 1.890625 -4.171875 C 2.460938 -4.171875 2.945312 -4.03125 3.34375 -3.75 L 3.015625 -3.09375 C 2.617188 -3.332031 2.222656 -3.453125 1.828125 -3.453125 C 1.421875 -3.453125 1.21875 -3.316406 1.21875 -3.046875 C 1.21875 -2.910156 1.289062 -2.796875 1.4375 -2.703125 C 1.59375 -2.617188 1.773438 -2.546875 1.984375 -2.484375 C 2.203125 -2.429688 2.414062 -2.363281 2.625 -2.28125 C 2.84375 -2.195312 3.023438 -2.0625 3.171875 -1.875 C 3.328125 -1.695312 3.40625 -1.472656 3.40625 -1.203125 C 3.40625 -0.796875 3.253906 -0.488281 2.953125 -0.28125 C 2.648438 -0.0703125 2.273438 0.03125 1.828125 0.03125 C 1.515625 0.03125 1.207031 -0.015625 0.90625 -0.109375 C 0.613281 -0.210938 0.363281 -0.359375 0.15625 -0.546875 L 0.484375 -1.1875 C 0.660156 -1.03125 0.875 -0.90625 1.125 -0.8125 C 1.382812 -0.71875 1.628906 -0.671875 1.859375 -0.671875 C 2.066406 -0.671875 2.234375 -0.707031 2.359375 -0.78125 C 2.484375 -0.851562 2.546875 -0.960938 2.546875 -1.109375 C 2.546875 -1.265625 2.46875 -1.390625 2.3125 -1.484375 C 2.164062 -1.578125 1.984375 -1.648438 1.765625 -1.703125 C 1.554688 -1.765625 1.34375 -1.832031 1.125 -1.90625 C 0.914062 -1.988281 0.738281 -2.117188 0.59375 -2.296875 C 0.445312 -2.472656 0.375 -2.695312 0.375 -2.96875 C 0.375 -3.363281 0.519531 -3.660156 0.8125 -3.859375 C 1.101562 -4.066406 1.460938 -4.171875 1.890625 -4.171875 Z M 1.890625 -4.171875 "/></g></g></g><g fill="#000000" fill-opacity="1"><g transform="translate(289.10749, 430.29132)"><g><path d="M 3.125 -4.15625 C 3.601562 -4.15625 3.976562 -4.015625 4.25 -3.734375 C 4.519531 -3.453125 4.65625 -3.066406 4.65625 -2.578125 L 4.65625 0 L 3.765625 0 L 3.765625 -2.328125 C 3.765625 -2.628906 3.675781 -2.867188 3.5 -3.046875 C 3.320312 -3.234375 3.078125 -3.328125 2.765625 -3.328125 C 2.410156 -3.316406 2.125 -3.191406 1.90625 -2.953125 C 1.695312 -2.710938 1.59375 -2.40625 1.59375 -2.03125 L 1.59375 0 L 0.703125 0 L 0.703125 -5.765625 L 1.59375 -5.765625 L 1.59375 -3.328125 C 1.875 -3.878906 2.382812 -4.15625 3.125 -4.15625 Z M 3.125 -4.15625 "/></g></g></g><g fill="#000000" fill-opacity="1"><g transform="translate(294.298159, 430.29132)"><g><path d="M 2.4375 -4.15625 C 3.070312 -4.15625 3.585938 -3.960938 3.984375 -3.578125 C 4.378906 -3.191406 4.578125 -2.6875 4.578125 -2.0625 C 4.578125 -1.445312 4.378906 -0.941406 3.984375 -0.546875 C 3.585938 -0.160156 3.070312 0.03125 2.4375 0.03125 C 1.789062 0.03125 1.265625 -0.160156 0.859375 -0.546875 C 0.460938 -0.941406 0.265625 -1.445312 0.265625 -2.0625 C 0.265625 -2.6875 0.460938 -3.191406 0.859375 -3.578125 C 1.265625 -3.960938 1.789062 -4.15625 2.4375 -4.15625 Z M 2.4375 -3.390625 C 2.0625 -3.390625 1.753906 -3.265625 1.515625 -3.015625 C 1.285156 -2.765625 1.171875 -2.445312 1.171875 -2.0625 C 1.171875 -1.65625 1.285156 -1.328125 1.515625 -1.078125 C 1.753906 -0.835938 2.054688 -0.71875 2.421875 -0.71875 C 2.796875 -0.71875 3.097656 -0.835938 3.328125 -1.078125 C 3.566406 -1.328125 3.6875 -1.65625 3.6875 -2.0625 C 3.6875 -2.445312 3.566406 -2.765625 3.328125 -3.015625 C 3.097656 -3.265625 2.800781 -3.390625 2.4375 -3.390625 Z M 2.4375 -3.390625 "/></g></g></g><g fill="#000000" fill-opacity="1"><g transform="translate(299.147436, 430.29132)"><g><path d="M 1.546875 -4.125 L 1.546875 -3.3125 C 1.835938 -3.875 2.316406 -4.15625 2.984375 -4.15625 L 2.984375 -3.3125 C 2.578125 -3.332031 2.242188 -3.234375 1.984375 -3.015625 C 1.734375 -2.804688 1.585938 -2.519531 1.546875 -2.15625 L 1.546875 0 L 0.65625 0 L 0.65625 -4.125 Z M 1.546875 -4.125 "/></g></g></g><g fill="#000000" fill-opacity="1"><g transform="translate(302.204421, 430.29132)"><g/></g></g><g fill="#000000" fill-opacity="1"><g transform="translate(304.206203, 430.29132)"><g><path d="M 4.421875 -4.609375 L 2.703125 -4.609375 L 2.703125 0 L 1.78125 0 L 1.78125 -4.609375 L 0.0625 -4.609375 L 0.0625 -5.4375 L 4.421875 -5.4375 Z M 4.421875 -4.609375 "/></g></g></g><g fill="#000000" fill-opacity="1"><g transform="translate(308.698579, 430.29132)"><g><path d="M 0.5 -0.8125 C 0.59375 -0.90625 0.707031 -0.953125 0.84375 -0.953125 C 0.988281 -0.953125 1.101562 -0.90625 1.1875 -0.8125 C 1.28125 -0.71875 1.328125 -0.597656 1.328125 -0.453125 C 1.328125 -0.296875 1.28125 -0.171875 1.1875 -0.078125 C 1.101562 0.015625 0.988281 0.0625 0.84375 0.0625 C 0.707031 0.0625 0.59375 0.015625 0.5 -0.078125 C 0.40625 -0.171875 0.359375 -0.296875 0.359375 -0.453125 C 0.359375 -0.597656 0.40625 -0.71875 0.5 -0.8125 Z M 0.5 -0.8125 "/></g></g></g><g fill="#000000" fill-opacity="1"><g transform="translate(310.390005, 430.29132)"><g/></g></g><g fill="#000000" fill-opacity="1"><g transform="translate(312.391787, 430.29132)"><g><path d="M 0.71875 -5.4375 L 2.875 -5.4375 C 3.5625 -5.4375 4.09375 -5.273438 4.46875 -4.953125 C 4.84375 -4.628906 5.03125 -4.171875 5.03125 -3.578125 C 5.03125 -2.960938 4.84375 -2.484375 4.46875 -2.140625 C 4.09375 -1.804688 3.5625 -1.640625 2.875 -1.640625 L 1.625 -1.640625 L 1.625 0 L 0.71875 0 Z M 1.625 -4.609375 L 1.625 -2.46875 L 2.84375 -2.46875 C 3.71875 -2.46875 4.15625 -2.832031 4.15625 -3.5625 C 4.15625 -4.257812 3.71875 -4.609375 2.84375 -4.609375 Z M 1.625 -4.609375 "/></g></g></g><g fill="#000000" fill-opacity="1"><g transform="translate(317.613491, 430.29132)"><g><path d="M 3.140625 0 L 3.140625 -0.5 C 2.835938 -0.144531 2.378906 0.03125 1.765625 0.03125 C 1.328125 0.03125 0.972656 -0.0859375 0.703125 -0.328125 C 0.441406 -0.566406 0.3125 -0.875 0.3125 -1.25 C 0.3125 -1.625 0.445312 -1.921875 0.71875 -2.140625 C 1 -2.367188 1.382812 -2.484375 1.875 -2.484375 L 3.125 -2.484375 L 3.125 -2.609375 C 3.125 -2.867188 3.039062 -3.070312 2.875 -3.21875 C 2.707031 -3.363281 2.460938 -3.4375 2.140625 -3.4375 C 1.742188 -3.4375 1.335938 -3.296875 0.921875 -3.015625 L 0.5625 -3.640625 C 0.875 -3.828125 1.15625 -3.957031 1.40625 -4.03125 C 1.65625 -4.113281 1.96875 -4.15625 2.34375 -4.15625 C 2.863281 -4.15625 3.269531 -4.023438 3.5625 -3.765625 C 3.851562 -3.515625 4 -3.160156 4 -2.703125 L 4.015625 0 Z M 1.953125 -0.671875 C 2.273438 -0.671875 2.546875 -0.742188 2.765625 -0.890625 C 2.984375 -1.035156 3.101562 -1.222656 3.125 -1.453125 L 3.125 -1.828125 L 2.015625 -1.828125 C 1.710938 -1.828125 1.492188 -1.785156 1.359375 -1.703125 C 1.222656 -1.617188 1.15625 -1.476562 1.15625 -1.28125 C 1.15625 -1.09375 1.222656 -0.941406 1.359375 -0.828125 C 1.503906 -0.722656 1.703125 -0.671875 1.953125 -0.671875 Z M 1.953125 -0.671875 "/></g></g></g><g fill="#000000" fill-opacity="1"><g transform="translate(322.160174, 430.29132)"><g><path d="M 2.765625 -0.953125 L 3 -0.265625 C 2.65625 -0.0664062 2.3125 0.03125 1.96875 0.03125 C 1.632812 0.03125 1.359375 -0.0664062 1.140625 -0.265625 C 0.929688 -0.460938 0.828125 -0.765625 0.828125 -1.171875 L 0.828125 -3.3125 L 0.234375 -3.3125 L 0.234375 -3.96875 L 0.828125 -3.96875 L 0.828125 -5.109375 L 1.703125 -5.109375 L 1.703125 -3.96875 L 2.921875 -3.96875 L 2.921875 -3.3125 L 1.703125 -3.3125 L 1.703125 -1.328125 C 1.703125 -1.117188 1.738281 -0.972656 1.8125 -0.890625 C 1.882812 -0.804688 2 -0.765625 2.15625 -0.765625 C 2.320312 -0.765625 2.523438 -0.828125 2.765625 -0.953125 Z M 2.765625 -0.953125 "/></g></g></g><g fill="#000000" fill-opacity="1"><g transform="translate(325.318025, 430.29132)"><g><path d="M 0.71875 -5.703125 C 0.820312 -5.804688 0.945312 -5.859375 1.09375 -5.859375 C 1.25 -5.859375 1.375 -5.804688 1.46875 -5.703125 C 1.570312 -5.597656 1.625 -5.46875 1.625 -5.3125 C 1.625 -5.15625 1.570312 -5.023438 1.46875 -4.921875 C 1.375 -4.828125 1.25 -4.78125 1.09375 -4.78125 C 0.945312 -4.78125 0.820312 -4.828125 0.71875 -4.921875 C 0.625 -5.023438 0.578125 -5.15625 0.578125 -5.3125 C 0.578125 -5.46875 0.625 -5.597656 0.71875 -5.703125 Z M 1.546875 0 L 0.65625 0 L 0.65625 -4.125 L 1.546875 -4.125 Z M 1.546875 0 "/></g></g></g><g fill="#000000" fill-opacity="1"><g transform="translate(327.521534, 430.29132)"><g><path d="M 1.59375 0 L 0.703125 0 L 0.703125 -5.765625 L 1.59375 -5.765625 Z M 1.59375 0 "/></g></g></g><path stroke-linecap="round" transform="matrix(0.750178, 0, 0, 0.748703, 237.960263, 409.176264)" fill="none" stroke-linejoin="miter" d="M 0.50078 -0.000645265 L 158.192536 -0.000645265 " stroke="#000000" stroke-width="1" stroke-opacity="1" stroke-miterlimit="4"/></svg>