<svg xmlns="http://www.w3.org/2000/svg" xmlns:xlink="http://www.w3.org/1999/xlink" width="793" zoomAndPan="magnify" viewBox="0 0 594.95996 842.24997" height="1122" preserveAspectRatio="xMidYMid meet" version="1.0"><defs><g/></defs><g fill="#000000" fill-opacity="1"><g transform="translate(280.207555, 419.403792)"><g><path d="M 0.71875 -5.4375 L 2.875 -5.4375 C 3.5625 -5.4375 4.09375 -5.273438 4.46875 -4.953125 C 4.84375 -4.628906 5.03125 -4.171875 5.03125 -3.578125 C 5.03125 -2.960938 4.84375 -2.484375 4.46875 -2.140625 C 4.09375 -1.804688 3.5625 -1.640625 2.875 -1.640625 L 1.625 -1.640625 L 1.625 0 L 0.71875 0 Z M 1.625 -4.609375 L 1.625 -2.46875 L 2.84375 -2.46875 C 3.71875 -2.46875 4.15625 -2.832031 4.15625 -3.5625 C 4.15625 -4.257812 3.71875 -4.609375 2.84375 -4.609375 Z M 1.625 -4.609375 "/></g></g></g><g fill="#000000" fill-opacity="1"><g transform="translate(285.429259, 419.403792)"><g><path d="M 1.546875 -4.125 L 1.546875 -3.3125 C 1.835938 -3.875 2.316406 -4.15625 2.984375 -4.15625 L 2.984375 -3.3125 C 2.578125 -3.332031 2.242188 -3.234375 1.984375 -3.015625 C 1.734375 -2.804688 1.585938 -2.519531 1.546875 -2.15625 L 1.546875 0 L 0.65625 0 L 0.65625 -4.125 Z M 1.546875 -4.125 "/></g></g></g><g fill="#000000" fill-opacity="1"><g transform="translate(288.486243, 419.403792)"><g><path d="M 0.71875 -5.703125 C 0.820312 -5.804688 0.945312 -5.859375 1.09375 -5.859375 C 1.25 -5.859375 1.375 -5.804688 1.46875 -5.703125 C 1.570312 -5.597656 1.625 -5.46875 1.625 -5.3125 C 1.625 -5.15625 1.570312 -5.023438 1.46875 -4.921875 C 1.375 -4.828125 1.25 -4.78125 1.09375 -4.78125 C 0.945312 -4.78125 0.820312 -4.828125 0.71875 -4.921875 C 0.625 -5.023438 0.578125 -5.15625 0.578125 -5.3125 C 0.578125 -5.46875 0.625 -5.597656 0.71875 -5.703125 Z M 1.546875 0 L 0.65625 0 L 0.65625 -4.125 L 1.546875 -4.125 Z M 1.546875 0 "/></g></g></g><g fill="#000000" fill-opacity="1"><g transform="translate(290.689752, 419.403792)"><g><path d="M 3.078125 -4.15625 C 3.554688 -4.15625 3.929688 -4.015625 4.203125 -3.734375 C 4.472656 -3.453125 4.609375 -3.066406 4.609375 -2.578125 L 4.609375 0 L 3.71875 0 L 3.71875 -2.328125 C 3.71875 -2.628906 3.628906 -2.867188 3.453125 -3.046875 C 3.273438 -3.234375 3.03125 -3.328125 2.71875 -3.328125 C 2.394531 -3.316406 2.125 -3.207031 1.90625 -3 C 1.695312 -2.789062 1.578125 -2.523438 1.546875 -2.203125 L 1.546875 0 L 0.65625 0 L 0.65625 -4.125 L 1.546875 -4.125 L 1.546875 -3.34375 C 1.828125 -3.882812 2.335938 -4.15625 3.078125 -4.15625 Z M 3.078125 -4.15625 "/></g></g></g><g fill="#000000" fill-opacity="1"><g transform="translate(295.833869, 419.403792)"><g><path d="M 2.359375 -4.15625 C 3.097656 -4.15625 3.664062 -3.929688 4.0625 -3.484375 L 3.578125 -2.90625 C 3.265625 -3.226562 2.867188 -3.382812 2.390625 -3.375 C 2.035156 -3.375 1.742188 -3.25 1.515625 -3 C 1.285156 -2.757812 1.171875 -2.441406 1.171875 -2.046875 C 1.171875 -1.660156 1.285156 -1.34375 1.515625 -1.09375 C 1.742188 -0.851562 2.035156 -0.734375 2.390625 -0.734375 C 2.921875 -0.734375 3.328125 -0.898438 3.609375 -1.234375 L 4.109375 -0.734375 C 3.722656 -0.222656 3.140625 0.03125 2.359375 0.03125 C 1.734375 0.03125 1.226562 -0.160156 0.84375 -0.546875 C 0.457031 -0.929688 0.265625 -1.4375 0.265625 -2.0625 C 0.265625 -2.6875 0.457031 -3.191406 0.84375 -3.578125 C 1.226562 -3.960938 1.734375 -4.15625 2.359375 -4.15625 Z M 2.359375 -4.15625 "/></g></g></g><g fill="#000000" fill-opacity="1"><g transform="translate(300.20986, 419.403792)"><g><path d="M 0.71875 -5.703125 C 0.820312 -5.804688 0.945312 -5.859375 1.09375 -5.859375 C 1.25 -5.859375 1.375 -5.804688 1.46875 -5.703125 C 1.570312 -5.597656 1.625 -5.46875 1.625 -5.3125 C 1.625 -5.15625 1.570312 -5.023438 1.46875 -4.921875 C 1.375 -4.828125 1.25 -4.78125 1.09375 -4.78125 C 0.945312 -4.78125 0.820312 -4.828125 0.71875 -4.921875 C 0.625 -5.023438 0.578125 -5.15625 0.578125 -5.3125 C 0.578125 -5.46875 0.625 -5.597656 0.71875 -5.703125 Z M 1.546875 0 L 0.65625 0 L 0.65625 -4.125 L 1.546875 -4.125 Z M 1.546875 0 "/></g></g></g><g fill="#000000" fill-opacity="1"><g transform="translate(302.413369, 419.403792)"><g><path d="M 3.03125 -4.15625 C 3.613281 -4.15625 4.085938 -3.957031 4.453125 -3.5625 C 4.828125 -3.175781 5.015625 -2.671875 5.015625 -2.046875 C 5.015625 -1.429688 4.832031 -0.929688 4.46875 -0.546875 C 4.113281 -0.160156 3.640625 0.03125 3.046875 0.03125 C 2.390625 0.03125 1.90625 -0.21875 1.59375 -0.71875 L 1.59375 1.5 L 0.703125 1.5 L 0.703125 -4.125 L 1.59375 -4.125 L 1.59375 -3.421875 C 1.90625 -3.910156 2.382812 -4.15625 3.03125 -4.15625 Z M 1.9375 -1.109375 C 2.175781 -0.859375 2.476562 -0.734375 2.84375 -0.734375 C 3.21875 -0.734375 3.519531 -0.859375 3.75 -1.109375 C 3.988281 -1.359375 4.109375 -1.679688 4.109375 -2.078125 C 4.109375 -2.460938 3.988281 -2.78125 3.75 -3.03125 C 3.519531 -3.289062 3.21875 -3.421875 2.84375 -3.421875 C 2.476562 -3.421875 2.175781 -3.289062 1.9375 -3.03125 C 1.707031 -2.78125 1.59375 -2.460938 1.59375 -2.078125 C 1.59375 -1.679688 1.707031 -1.359375 1.9375 -1.109375 Z M 1.9375 -1.109375 "/></g></g></g><g fill="#000000" fill-opacity="1"><g transform="translate(307.689388, 419.403792)"><g><path d="M 3.140625 0 L 3.140625 -0.5 C 2.835938 -0.144531 2.378906 0.03125 1.765625 0.03125 C 1.328125 0.03125 0.972656 -0.0859375 0.703125 -0.328125 C 0.441406 -0.566406 0.3125 -0.875 0.3125 -1.25 C 0.3125 -1.625 0.445312 -1.921875 0.71875 -2.140625 C 1 -2.367188 1.382812 -2.484375 1.875 -2.484375 L 3.125 -2.484375 L 3.125 -2.609375 C 3.125 -2.867188 3.039062 -3.070312 2.875 -3.21875 C 2.707031 -3.363281 2.460938 -3.4375 2.140625 -3.4375 C 1.742188 -3.4375 1.335938 -3.296875 0.921875 -3.015625 L 0.5625 -3.640625 C 0.875 -3.828125 1.15625 -3.957031 1.40625 -4.03125 C 1.65625 -4.113281 1.96875 -4.15625 2.34375 -4.15625 C 2.863281 -4.15625 3.269531 -4.023438 3.5625 -3.765625 C 3.851562 -3.515625 4 -3.160156 4 -2.703125 L 4.015625 0 Z M 1.953125 -0.671875 C 2.273438 -0.671875 2.546875 -0.742188 2.765625 -0.890625 C 2.984375 -1.035156 3.101562 -1.222656 3.125 -1.453125 L 3.125 -1.828125 L 2.015625 -1.828125 C 1.710938 -1.828125 1.492188 -1.785156 1.359375 -1.703125 C 1.222656 -1.617188 1.15625 -1.476562 1.15625 -1.28125 C 1.15625 -1.09375 1.222656 -0.941406 1.359375 -0.828125 C 1.503906 -0.722656 1.703125 -0.671875 1.953125 -0.671875 Z M 1.953125 -0.671875 "/></g></g></g><g fill="#000000" fill-opacity="1"><g transform="translate(312.236071, 419.403792)"><g><path d="M 1.59375 0 L 0.703125 0 L 0.703125 -5.765625 L 1.59375 -5.765625 Z M 1.59375 0 "/></g></g></g><g fill="#000000" fill-opacity="1"><g transform="translate(265.763571, 430.026596)"><g><path d="M 0.71875 -5.4375 L 2.9375 -5.4375 C 3.75 -5.4375 4.421875 -5.175781 4.953125 -4.65625 C 5.484375 -4.144531 5.75 -3.492188 5.75 -2.703125 C 5.75 -1.921875 5.484375 -1.273438 4.953125 -0.765625 C 4.421875 -0.253906 3.742188 0 2.921875 0 L 0.71875 0 Z M 1.625 -4.609375 L 1.625 -0.828125 L 2.96875 -0.828125 C 3.5 -0.828125 3.941406 -1.003906 4.296875 -1.359375 C 4.648438 -1.710938 4.828125 -2.160156 4.828125 -2.703125 C 4.828125 -3.253906 4.644531 -3.707031 4.28125 -4.0625 C 3.914062 -4.425781 3.460938 -4.609375 2.921875 -4.609375 Z M 1.625 -4.609375 "/></g></g></g><g fill="#000000" fill-opacity="1"><g transform="translate(271.77668, 430.026596)"><g><path d="M 1.546875 -4.125 L 1.546875 -3.3125 C 1.835938 -3.875 2.316406 -4.15625 2.984375 -4.15625 L 2.984375 -3.3125 C 2.578125 -3.332031 2.242188 -3.234375 1.984375 -3.015625 C 1.734375 -2.804688 1.585938 -2.519531 1.546875 -2.15625 L 1.546875 0 L 0.65625 0 L 0.65625 -4.125 Z M 1.546875 -4.125 "/></g></g></g><g fill="#000000" fill-opacity="1"><g transform="translate(274.833665, 430.026596)"><g><path d="M 0.5 -0.8125 C 0.59375 -0.90625 0.707031 -0.953125 0.84375 -0.953125 C 0.988281 -0.953125 1.101562 -0.90625 1.1875 -0.8125 C 1.28125 -0.71875 1.328125 -0.597656 1.328125 -0.453125 C 1.328125 -0.296875 1.28125 -0.171875 1.1875 -0.078125 C 1.101562 0.015625 0.988281 0.0625 0.84375 0.0625 C 0.707031 0.0625 0.59375 0.015625 0.5 -0.078125 C 0.40625 -0.171875 0.359375 -0.296875 0.359375 -0.453125 C 0.359375 -0.597656 0.40625 -0.71875 0.5 -0.8125 Z M 0.5 -0.8125 "/></g></g></g><g fill="#000000" fill-opacity="1"><g transform="translate(276.52509, 430.026596)"><g/></g></g><g fill="#000000" fill-opacity="1"><g transform="translate(278.526872, 430.026596)"><g><path d="M 2.5 -5.46875 C 3.207031 -5.46875 3.84375 -5.285156 4.40625 -4.921875 L 4.015625 -4.109375 C 3.460938 -4.441406 2.9375 -4.609375 2.4375 -4.609375 C 2.15625 -4.609375 1.9375 -4.554688 1.78125 -4.453125 C 1.625 -4.359375 1.546875 -4.222656 1.546875 -4.046875 C 1.546875 -3.867188 1.617188 -3.710938 1.765625 -3.578125 C 1.910156 -3.453125 2.085938 -3.359375 2.296875 -3.296875 C 2.515625 -3.242188 2.75 -3.171875 3 -3.078125 C 3.257812 -2.984375 3.5 -2.882812 3.71875 -2.78125 C 3.9375 -2.6875 4.113281 -2.53125 4.25 -2.3125 C 4.394531 -2.101562 4.46875 -1.84375 4.46875 -1.53125 C 4.46875 -1.0625 4.273438 -0.679688 3.890625 -0.390625 C 3.515625 -0.109375 3.023438 0.03125 2.421875 0.03125 C 2.003906 0.03125 1.601562 -0.046875 1.21875 -0.203125 C 0.832031 -0.359375 0.492188 -0.566406 0.203125 -0.828125 L 0.59375 -1.625 C 0.875 -1.375 1.175781 -1.175781 1.5 -1.03125 C 1.832031 -0.894531 2.144531 -0.828125 2.4375 -0.828125 C 2.757812 -0.828125 3.007812 -0.882812 3.1875 -1 C 3.363281 -1.125 3.453125 -1.285156 3.453125 -1.484375 C 3.453125 -1.671875 3.378906 -1.828125 3.234375 -1.953125 C 3.085938 -2.085938 2.90625 -2.179688 2.6875 -2.234375 C 2.476562 -2.296875 2.242188 -2.367188 1.984375 -2.453125 C 1.734375 -2.535156 1.5 -2.625 1.28125 -2.71875 C 1.0625 -2.820312 0.878906 -2.976562 0.734375 -3.1875 C 0.585938 -3.40625 0.515625 -3.660156 0.515625 -3.953125 C 0.515625 -4.421875 0.695312 -4.789062 1.0625 -5.0625 C 1.425781 -5.332031 1.90625 -5.46875 2.5 -5.46875 Z M 2.5 -5.46875 "/></g></g></g><g fill="#000000" fill-opacity="1"><g transform="translate(283.352877, 430.026596)"><g><path d="M 4.40625 -4.125 L 4.40625 0 L 3.515625 0 L 3.515625 -0.8125 C 3.242188 -0.257812 2.753906 0.0195312 2.046875 0.03125 C 1.566406 0.03125 1.191406 -0.109375 0.921875 -0.390625 C 0.660156 -0.679688 0.53125 -1.070312 0.53125 -1.5625 L 0.53125 -4.125 L 1.421875 -4.125 L 1.421875 -1.8125 C 1.421875 -1.5 1.503906 -1.253906 1.671875 -1.078125 C 1.847656 -0.898438 2.085938 -0.8125 2.390625 -0.8125 C 2.734375 -0.8125 3.003906 -0.929688 3.203125 -1.171875 C 3.410156 -1.410156 3.515625 -1.71875 3.515625 -2.09375 L 3.515625 -4.125 Z M 4.40625 -4.125 "/></g></g></g><g fill="#000000" fill-opacity="1"><g transform="translate(288.419407, 430.026596)"><g><path d="M 3.078125 -4.15625 C 3.554688 -4.15625 3.929688 -4.015625 4.203125 -3.734375 C 4.472656 -3.453125 4.609375 -3.066406 4.609375 -2.578125 L 4.609375 0 L 3.71875 0 L 3.71875 -2.328125 C 3.71875 -2.628906 3.628906 -2.867188 3.453125 -3.046875 C 3.273438 -3.234375 3.03125 -3.328125 2.71875 -3.328125 C 2.394531 -3.316406 2.125 -3.207031 1.90625 -3 C 1.695312 -2.789062 1.578125 -2.523438 1.546875 -2.203125 L 1.546875 0 L 0.65625 0 L 0.65625 -4.125 L 1.546875 -4.125 L 1.546875 -3.34375 C 1.828125 -3.882812 2.335938 -4.15625 3.078125 -4.15625 Z M 3.078125 -4.15625 "/></g></g></g><g fill="#000000" fill-opacity="1"><g transform="translate(293.563523, 430.026596)"><g><path d="M 0.71875 -5.703125 C 0.820312 -5.804688 0.945312 -5.859375 1.09375 -5.859375 C 1.25 -5.859375 1.375 -5.804688 1.46875 -5.703125 C 1.570312 -5.597656 1.625 -5.46875 1.625 -5.3125 C 1.625 -5.15625 1.570312 -5.023438 1.46875 -4.921875 C 1.375 -4.828125 1.25 -4.78125 1.09375 -4.78125 C 0.945312 -4.78125 0.820312 -4.828125 0.71875 -4.921875 C 0.625 -5.023438 0.578125 -5.15625 0.578125 -5.3125 C 0.578125 -5.46875 0.625 -5.597656 0.71875 -5.703125 Z M 1.546875 0 L 0.65625 0 L 0.65625 -4.125 L 1.546875 -4.125 Z M 1.546875 0 "/></g></g></g><g fill="#000000" fill-opacity="1"><g transform="translate(295.767032, 430.026596)"><g><path d="M 1.59375 0 L 0.703125 0 L 0.703125 -5.765625 L 1.59375 -5.765625 Z M 1.59375 0 "/></g></g></g><g fill="#000000" fill-opacity="1"><g transform="translate(298.055891, 430.026596)"><g/></g></g><g fill="#000000" fill-opacity="1"><g transform="translate(300.057673, 430.026596)"><g><path d="M 3.125 -5.453125 C 3.507812 -5.453125 3.882812 -5.378906 4.25 -5.234375 C 4.613281 -5.085938 4.925781 -4.882812 5.1875 -4.625 L 4.65625 -3.953125 C 4.457031 -4.160156 4.222656 -4.328125 3.953125 -4.453125 C 3.679688 -4.578125 3.410156 -4.640625 3.140625 -4.640625 C 2.597656 -4.640625 2.140625 -4.453125 1.765625 -4.078125 C 1.390625 -3.710938 1.203125 -3.265625 1.203125 -2.734375 C 1.203125 -2.191406 1.390625 -1.734375 1.765625 -1.359375 C 2.140625 -0.992188 2.597656 -0.8125 3.140625 -0.8125 C 3.703125 -0.8125 4.207031 -1.023438 4.65625 -1.453125 L 5.1875 -0.859375 C 4.914062 -0.578125 4.59375 -0.359375 4.21875 -0.203125 C 3.84375 -0.046875 3.46875 0.03125 3.09375 0.03125 C 2.289062 0.03125 1.617188 -0.226562 1.078125 -0.75 C 0.535156 -1.28125 0.265625 -1.9375 0.265625 -2.71875 C 0.265625 -3.488281 0.539062 -4.132812 1.09375 -4.65625 C 1.644531 -5.1875 2.320312 -5.453125 3.125 -5.453125 Z M 3.125 -5.453125 "/></g></g></g><g fill="#000000" fill-opacity="1"><g transform="translate(305.465587, 430.026596)"><g><path d="M 3.125 -4.15625 C 3.601562 -4.15625 3.976562 -4.015625 4.25 -3.734375 C 4.519531 -3.453125 4.65625 -3.066406 4.65625 -2.578125 L 4.65625 0 L 3.765625 0 L 3.765625 -2.328125 C 3.765625 -2.628906 3.675781 -2.867188 3.5 -3.046875 C 3.320312 -3.234375 3.078125 -3.328125 2.765625 -3.328125 C 2.410156 -3.316406 2.125 -3.191406 1.90625 -2.953125 C 1.695312 -2.710938 1.59375 -2.40625 1.59375 -2.03125 L 1.59375 0 L 0.703125 0 L 0.703125 -5.765625 L 1.59375 -5.765625 L 1.59375 -3.328125 C 1.875 -3.878906 2.382812 -4.15625 3.125 -4.15625 Z M 3.125 -4.15625 "/></g></g></g><g fill="#000000" fill-opacity="1"><g transform="translate(310.656255, 430.026596)"><g><path d="M 3.140625 0 L 3.140625 -0.5 C 2.835938 -0.144531 2.378906 0.03125 1.765625 0.03125 C 1.328125 0.03125 0.972656 -0.0859375 0.703125 -0.328125 C 0.441406 -0.566406 0.3125 -0.875 0.3125 -1.25 C 0.3125 -1.625 0.445312 -1.921875 0.71875 -2.140625 C 1 -2.367188 1.382812 -2.484375 1.875 -2.484375 L 3.125 -2.484375 L 3.125 -2.609375 C 3.125 -2.867188 3.039062 -3.070312 2.875 -3.21875 C 2.707031 -3.363281 2.460938 -3.4375 2.140625 -3.4375 C 1.742188 -3.4375 1.335938 -3.296875 0.921875 -3.015625 L 0.5625 -3.640625 C 0.875 -3.828125 1.15625 -3.957031 1.40625 -4.03125 C 1.65625 -4.113281 1.96875 -4.15625 2.34375 -4.15625 C 2.863281 -4.15625 3.269531 -4.023438 3.5625 -3.765625 C 3.851562 -3.515625 4 -3.160156 4 -2.703125 L 4.015625 0 Z M 1.953125 -0.671875 C 2.273438 -0.671875 2.546875 -0.742188 2.765625 -0.890625 C 2.984375 -1.035156 3.101562 -1.222656 3.125 -1.453125 L 3.125 -1.828125 L 2.015625 -1.828125 C 1.710938 -1.828125 1.492188 -1.785156 1.359375 -1.703125 C 1.222656 -1.617188 1.15625 -1.476562 1.15625 -1.28125 C 1.15625 -1.09375 1.222656 -0.941406 1.359375 -0.828125 C 1.503906 -0.722656 1.703125 -0.671875 1.953125 -0.671875 Z M 1.953125 -0.671875 "/></g></g></g><g fill="#000000" fill-opacity="1"><g transform="translate(315.202938, 430.026596)"><g><path d="M 2.53125 0 L 1.609375 0 L 0 -4.125 L 0.9375 -4.125 L 2.09375 -0.875 L 3.21875 -4.125 L 4.109375 -4.125 Z M 2.53125 0 "/></g></g></g><g fill="#000000" fill-opacity="1"><g transform="translate(319.276335, 430.026596)"><g><path d="M 3.140625 0 L 3.140625 -0.5 C 2.835938 -0.144531 2.378906 0.03125 1.765625 0.03125 C 1.328125 0.03125 0.972656 -0.0859375 0.703125 -0.328125 C 0.441406 -0.566406 0.3125 -0.875 0.3125 -1.25 C 0.3125 -1.625 0.445312 -1.921875 0.71875 -2.140625 C 1 -2.367188 1.382812 -2.484375 1.875 -2.484375 L 3.125 -2.484375 L 3.125 -2.609375 C 3.125 -2.867188 3.039062 -3.070312 2.875 -3.21875 C 2.707031 -3.363281 2.460938 -3.4375 2.140625 -3.4375 C 1.742188 -3.4375 1.335938 -3.296875 0.921875 -3.015625 L 0.5625 -3.640625 C 0.875 -3.828125 1.15625 -3.957031 1.40625 -4.03125 C 1.65625 -4.113281 1.96875 -4.15625 2.34375 -4.15625 C 2.863281 -4.15625 3.269531 -4.023438 3.5625 -3.765625 C 3.851562 -3.515625 4 -3.160156 4 -2.703125 L 4.015625 0 Z M 1.953125 -0.671875 C 2.273438 -0.671875 2.546875 -0.742188 2.765625 -0.890625 C 2.984375 -1.035156 3.101562 -1.222656 3.125 -1.453125 L 3.125 -1.828125 L 2.015625 -1.828125 C 1.710938 -1.828125 1.492188 -1.785156 1.359375 -1.703125 C 1.222656 -1.617188 1.15625 -1.476562 1.15625 -1.28125 C 1.15625 -1.09375 1.222656 -0.941406 1.359375 -0.828125 C 1.503906 -0.722656 1.703125 -0.671875 1.953125 -0.671875 Z M 1.953125 -0.671875 "/></g></g></g><g fill="#000000" fill-opacity="1"><g transform="translate(323.823018, 430.026596)"><g><path d="M 3.078125 -4.15625 C 3.554688 -4.15625 3.929688 -4.015625 4.203125 -3.734375 C 4.472656 -3.453125 4.609375 -3.066406 4.609375 -2.578125 L 4.609375 0 L 3.71875 0 L 3.71875 -2.328125 C 3.71875 -2.628906 3.628906 -2.867188 3.453125 -3.046875 C 3.273438 -3.234375 3.03125 -3.328125 2.71875 -3.328125 C 2.394531 -3.316406 2.125 -3.207031 1.90625 -3 C 1.695312 -2.789062 1.578125 -2.523438 1.546875 -2.203125 L 1.546875 0 L 0.65625 0 L 0.65625 -4.125 L 1.546875 -4.125 L 1.546875 -3.34375 C 1.828125 -3.882812 2.335938 -4.15625 3.078125 -4.15625 Z M 3.078125 -4.15625 "/></g></g></g><path stroke-linecap="round" transform="matrix(0.750178, 0, 0, 0.748703, 237.960263, 409.441085)" fill="none" stroke-linejoin="miter" d="M 0.50078 0.000429707 L 158.192536 0.000429707 " stroke="#000000" stroke-width="1" stroke-opacity="1" stroke-miterlimit="4"/></svg>